<svg width="17" height="12" viewBox="0 0 17 12" fill="none" xmlns="http://www.w3.org/2000/svg">
<path fill-rule="evenodd" clip-rule="evenodd" d="M0 5.875C0 5.39175 0.543654 5 1.21429 5H15.7857C16.4563 5 17 5.39175 17 5.875C17 6.35825 16.4563 6.75 15.7857 6.75H1.21429C0.543654 6.75 0 6.35825 0 5.875Z" fill="white"/>
<path fill-rule="evenodd" clip-rule="evenodd" d="M0 11.125C0 10.6418 0.543654 10.25 1.21429 10.25H15.7857C16.4563 10.25 17 10.6418 17 11.125C17 11.6082 16.4563 12 15.7857 12H1.21429C0.543654 12 0 11.6082 0 11.125Z" fill="white"/>
<path fill-rule="evenodd" clip-rule="evenodd" d="M0 0.875C0 0.391751 0.543654 0 1.21429 0H15.7857C16.4563 0 17 0.391751 17 0.875C17 1.35825 16.4563 1.75 15.7857 1.75H1.21429C0.543654 1.75 0 1.35825 0 0.875Z" fill="white"/>
<path fill-rule="evenodd" clip-rule="evenodd" d="M0 6.125C0 5.64175 0.543654 5.25 1.21429 5.25H15.7857C16.4563 5.25 17 5.64175 17 6.125C17 6.60825 16.4563 7 15.7857 7H1.21429C0.543654 7 0 6.60825 0 6.125Z" fill="white"/>
</svg>
